<svg width="14" height="17" viewBox="0 0 14 17" fill="none" xmlns="http://www.w3.org/2000/svg">
<g clip-path="url(#clip0_223_314)">
<path d="M9.33301 9.16422V14.374" stroke="white" stroke-width="2" stroke-linecap="round" stroke-linejoin="round"/>
<path d="M4.66699 9.16422V14.374" stroke="white" stroke-width="2" stroke-linecap="round" stroke-linejoin="round"/>
<path d="M7 10.4667V15.6765" stroke="white" stroke-width="2" stroke-linecap="round" stroke-linejoin="round"/>
<path d="M11.6668 11.4956C12.2801 11.1958 12.7822 10.6695 13.0891 10.0053C13.3959 9.34102 13.4887 8.57915 13.3519 7.84755C13.215 7.11594 12.857 6.45915 12.3377 5.98742C11.8185 5.51569 11.1696 5.25774 10.5002 5.25686H9.76518C9.58028 4.45749 9.22785 3.71863 8.73695 3.10118C8.24605 2.48372 7.63073 2.00535 6.94171 1.70549C6.2527 1.40563 5.50971 1.29287 4.774 1.3765C4.03828 1.46014 3.3309 1.73777 2.71017 2.18652C2.08944 2.63527 1.57312 3.24229 1.20378 3.95753C0.834434 4.67278 0.622641 5.47578 0.585856 6.30035C0.54907 7.12491 0.688345 7.94743 0.992201 8.70011C1.29606 9.45279 1.75579 10.1141 2.33352 10.6295" stroke="white" stroke-width="2" stroke-linecap="round" stroke-linejoin="round"/>
</g>
<defs>
<clipPath id="clip0_223_314">
<rect width="14" height="15.6294" fill="white" transform="translate(0 0.698303)"/>
</clipPath>
</defs>
</svg>
