<svg width="18" height="18" viewBox="0 0 18 18" fill="none" xmlns="http://www.w3.org/2000/svg">
<path fill-rule="evenodd" clip-rule="evenodd" d="M14.7805 4.28047C14.9171 4.13901 14.9927 3.94955 14.991 3.75289C14.9893 3.55623 14.9104 3.36811 14.7713 3.22905C14.6323 3.08999 14.4442 3.01111 14.2475 3.0094C14.0509 3.00769 13.8614 3.08329 13.72 3.21991L10.5242 6.41507C9.95124 6.07681 9.28207 5.93865 8.62198 6.02231C7.96189 6.10597 7.34834 6.40672 6.87786 6.87723C6.40737 7.34774 6.10664 7.96131 6.02298 8.62143C5.93933 9.28156 6.07748 9.95076 6.41572 10.5238L3.21997 13.7204C3.14834 13.7896 3.0912 13.8724 3.0519 13.9639C3.01259 14.0554 2.9919 14.1538 2.99103 14.2534C2.99017 14.353 3.00915 14.4518 3.04686 14.5439C3.08457 14.6361 3.14026 14.7199 3.21068 14.7903C3.2811 14.8607 3.36484 14.9164 3.45701 14.9541C3.54918 14.9918 3.64794 15.0108 3.74752 15.0099C3.84711 15.0091 3.94552 14.9884 4.03703 14.9491C4.12853 14.9098 4.21129 14.8526 4.28047 14.781L7.47622 11.5858C8.04921 11.9241 8.71838 12.0622 9.37847 11.9786C10.0386 11.8949 10.6521 11.5942 11.1226 11.1237C11.5931 10.6532 11.8938 10.0396 11.9775 9.37946C12.0611 8.71934 11.923 8.05013 11.5847 7.47712L14.7805 4.28047ZM9.38872 7.55063C9.13433 7.48236 8.86644 7.48229 8.612 7.55042C8.35757 7.61855 8.12556 7.75247 7.93931 7.93873C7.75306 8.12499 7.61914 8.35701 7.55101 8.61146C7.48289 8.86591 7.48296 9.13381 7.55122 9.38822L9.38872 7.55063ZM8.61172 10.4495L10.4492 8.61193C10.5175 8.86634 10.5176 9.13424 10.4494 9.38868C10.3813 9.64313 10.2474 9.87515 10.0611 10.0614C9.87489 10.2477 9.64288 10.3816 9.38844 10.4497C9.13401 10.5179 8.86612 10.5178 8.61172 10.4495ZM11.824 3.61593C10.9727 3.24016 10.0255 3.00015 9.00022 3.00015C6.86122 3.00015 5.06797 4.04645 3.74872 5.17976C2.42497 6.31756 1.50622 7.60388 1.09822 8.22791C0.947498 8.45737 0.867187 8.72591 0.867188 9.00045C0.867187 9.27498 0.947498 9.54353 1.09822 9.77298C1.6939 10.6801 2.38482 11.5209 3.15922 12.2811L4.21972 11.2206C3.53212 10.5468 2.91725 9.80272 2.38522 9.00045C2.76772 8.42067 3.58372 7.29936 4.72597 6.31757C5.90572 5.30427 7.36222 4.50023 9.00022 4.50023C9.56637 4.50237 10.1285 4.59531 10.6652 4.77549L11.824 3.61593ZM9.00022 13.5007C8.43408 13.4985 7.87194 13.4056 7.33522 13.2254L6.17722 14.3857C7.02922 14.7607 7.97572 15.0015 9.00097 15.0015C11.14 15.0015 12.9332 13.9552 14.2525 12.8219C15.5762 11.6841 16.495 10.3978 16.903 9.77373C17.2112 9.30271 17.2112 8.70043 16.903 8.22866C16.3073 7.32156 15.6164 6.48075 14.842 5.72054L13.7807 6.78034C14.4683 7.45404 15.0832 8.19816 15.6152 9.00045C15.2327 9.58022 14.4167 10.7015 13.2745 11.6833C12.0947 12.6966 10.6382 13.5007 9.00022 13.5007Z" fill="white"/>
</svg>
