<svg width="17" height="17" viewBox="0 0 17 17" fill="none" xmlns="http://www.w3.org/2000/svg">
<path d="M8.49966 1.41666C7.41314 1.41661 6.34116 1.66651 5.36667 2.14704C4.39219 2.62757 3.5413 3.32583 2.87985 4.18782C2.2184 5.0498 1.76411 6.0524 1.55213 7.11804C1.34015 8.18369 1.37616 9.28381 1.65738 10.3333C1.9386 11.3828 2.45748 12.3536 3.17389 13.1704C3.8903 13.9873 4.78502 14.6284 5.78885 15.0442C6.79268 15.46 7.8787 15.6392 8.9629 15.5681C10.0471 15.497 11.1004 15.1775 12.0413 14.6342C12.126 14.5899 12.2008 14.5289 12.2613 14.455C12.3218 14.381 12.3667 14.2956 12.3933 14.2039C12.4199 14.1121 12.4277 14.0159 12.4162 13.9211C12.4046 13.8263 12.3741 13.7347 12.3263 13.652C12.2784 13.5693 12.2144 13.4971 12.138 13.4398C12.0615 13.3825 11.9743 13.3412 11.8815 13.3185C11.7887 13.2958 11.6923 13.2921 11.598 13.3076C11.5038 13.3231 11.4136 13.3575 11.333 13.4087C10.2527 14.0324 8.99688 14.2822 7.76017 14.1195C6.52346 13.9567 5.37502 13.3904 4.49295 12.5084C3.61087 11.6264 3.04445 10.4781 2.88154 9.24138C2.71862 8.0047 2.9683 6.74881 3.59187 5.66848C4.21543 4.58815 5.17803 3.74376 6.33039 3.26625C7.48274 2.78874 8.76046 2.70479 9.96538 3.02744C11.1703 3.35008 12.2351 4.06127 12.9947 5.05073C13.7542 6.04019 14.166 7.25262 14.1663 8.49999V9.03124C14.1663 9.36 14.0357 9.67529 13.8033 9.90776C13.5708 10.1402 13.2555 10.2708 12.9267 10.2708C12.598 10.2708 12.2827 10.1402 12.0502 9.90776C11.8178 9.67529 11.6872 9.36 11.6872 9.03124V6.02082C11.6872 5.83296 11.6125 5.65279 11.4797 5.51996C11.3469 5.38712 11.1667 5.31249 10.9788 5.31249C10.8141 5.30882 10.6533 5.3627 10.524 5.46483C10.3947 5.56697 10.3051 5.71098 10.2705 5.87207C9.74981 5.51194 9.13274 5.31695 8.49966 5.31249C7.9664 5.30611 7.44007 5.43363 6.96886 5.68337C6.49766 5.93311 6.09664 6.29708 5.80254 6.74195C5.50845 7.18683 5.33067 7.69838 5.2855 8.22976C5.24032 8.76114 5.3292 9.29536 5.54398 9.78349C5.75875 10.2716 6.09257 10.6981 6.51486 11.0238C6.93715 11.3495 7.4344 11.564 7.96108 11.6477C8.48777 11.7315 9.02704 11.6817 9.52951 11.503C10.032 11.3243 10.4816 11.0225 10.8372 10.625C11.1737 11.0608 11.6377 11.381 12.1647 11.5409C12.6916 11.7008 13.2553 11.6925 13.7773 11.5172C14.2993 11.3419 14.7537 11.0083 15.0774 10.5627C15.401 10.1172 15.5777 9.58188 15.583 9.03124V8.49999C15.583 7.56979 15.3998 6.6487 15.0438 5.78932C14.6878 4.92993 14.1661 4.14907 13.5083 3.49132C12.8506 2.83357 12.0697 2.31181 11.2103 1.95584C10.3509 1.59987 9.42986 1.41666 8.49966 1.41666ZM8.49966 10.2708C8.14942 10.2708 7.80705 10.167 7.51584 9.97238C7.22463 9.7778 6.99765 9.50124 6.86362 9.17766C6.72959 8.85408 6.69453 8.49802 6.76285 8.15452C6.83118 7.81101 6.99984 7.49548 7.24749 7.24782C7.49515 7.00017 7.81068 6.83151 8.15419 6.76318C8.4977 6.69485 8.85375 6.72992 9.17733 6.86395C9.50091 6.99798 9.77747 7.22496 9.97205 7.51617C10.1666 7.80738 10.2705 8.14975 10.2705 8.49999C10.2705 8.96964 10.0839 9.42006 9.75183 9.75216C9.41973 10.0843 8.96931 10.2708 8.49966 10.2708Z" fill="white"/>
</svg>
