<svg width="16" height="16" viewBox="0 0 16 16" fill="none" xmlns="http://www.w3.org/2000/svg">
<path fill-rule="evenodd" clip-rule="evenodd" d="M1.33301 4.0002C1.33301 3.29292 1.61396 2.61461 2.11406 2.11449C2.61415 1.61437 3.29243 1.3334 3.99967 1.3334H11.9997C12.7069 1.3334 13.3852 1.61437 13.8853 2.11449C14.3854 2.61461 14.6663 3.29292 14.6663 4.0002V12.0006C14.6663 12.7079 14.3854 13.3862 13.8853 13.8863C13.3852 14.3864 12.7069 14.6674 11.9997 14.6674H3.99967C3.29243 14.6674 2.61415 14.3864 2.11406 13.8863C1.61396 13.3862 1.33301 12.7079 1.33301 12.0006V4.0002ZM3.99967 2.6668C3.64605 2.6668 3.30691 2.80729 3.05687 3.05735C2.80682 3.30741 2.66634 3.64656 2.66634 4.0002V12.0006C2.66634 12.3542 2.80682 12.6934 3.05687 12.9435C3.30691 13.1935 3.64605 13.334 3.99967 13.334H7.99967V8.6671H7.33301C7.1562 8.6671 6.98663 8.59686 6.8616 8.47183C6.73658 8.3468 6.66634 8.17722 6.66634 8.0004C6.66634 7.82358 6.73658 7.65401 6.8616 7.52897C6.98663 7.40394 7.1562 7.3337 7.33301 7.3337H7.99967V6.33365C7.99967 5.71478 8.24551 5.12126 8.68309 4.68366C9.12068 4.24605 9.71417 4.0002 10.333 4.0002H10.733C10.9098 4.0002 11.0794 4.07045 11.2044 4.19548C11.3294 4.32051 11.3997 4.49008 11.3997 4.6669C11.3997 4.84372 11.3294 5.0133 11.2044 5.13833C11.0794 5.26336 10.9098 5.3336 10.733 5.3336H10.333C10.2017 5.3336 10.0716 5.35947 9.95032 5.40973C9.829 5.45998 9.71876 5.53365 9.6259 5.62651C9.53304 5.71937 9.45938 5.82962 9.40913 5.95095C9.35887 6.07228 9.33301 6.20232 9.33301 6.33365V7.3337H10.733C10.9098 7.3337 11.0794 7.40394 11.2044 7.52897C11.3294 7.65401 11.3997 7.82358 11.3997 8.0004C11.3997 8.17722 11.3294 8.3468 11.2044 8.47183C11.0794 8.59686 10.9098 8.6671 10.733 8.6671H9.33301V13.334H11.9997C12.3533 13.334 12.6924 13.1935 12.9425 12.9435C13.1925 12.6934 13.333 12.3542 13.333 12.0006V4.0002C13.333 3.64656 13.1925 3.30741 12.9425 3.05735C12.6924 2.80729 12.3533 2.6668 11.9997 2.6668H3.99967Z" fill="white"/>
</svg>
