<svg width="16" height="19" viewBox="0 0 16 19" fill="none" xmlns="http://www.w3.org/2000/svg">
<path fill-rule="evenodd" clip-rule="evenodd" d="M1.33301 5.04767C1.33301 4.25807 1.61396 3.50082 2.11406 2.94249C2.61415 2.38416 3.29243 2.0705 3.99967 2.0705H11.9997C12.7069 2.0705 13.3852 2.38416 13.8853 2.94249C14.3854 3.50082 14.6663 4.25807 14.6663 5.04767V13.9792C14.6663 14.7688 14.3854 15.526 13.8853 16.0844C13.3852 16.6427 12.7069 16.9564 11.9997 16.9564H3.99967C3.29243 16.9564 2.61415 16.6427 2.11406 16.0844C1.61396 15.526 1.33301 14.7688 1.33301 13.9792V5.04767ZM3.99967 3.55908C3.64605 3.55908 3.30691 3.71591 3.05687 3.99508C2.80682 4.27424 2.66634 4.65287 2.66634 5.04767V13.9792C2.66634 14.374 2.80682 14.7526 3.05687 15.0318C3.30691 15.3109 3.64605 15.4678 3.99967 15.4678H11.9997C12.3533 15.4678 12.6924 15.3109 12.9425 15.0318C13.1925 14.7526 13.333 14.374 13.333 13.9792V5.04767C13.333 4.65287 13.1925 4.27424 12.9425 3.99508C12.6924 3.71591 12.3533 3.55908 11.9997 3.55908H3.99967ZM7.99967 7.28054C7.46924 7.28054 6.96053 7.51579 6.58546 7.93454C6.21039 8.35329 5.99967 8.92123 5.99967 9.51342C5.99967 10.1056 6.21039 10.6736 6.58546 11.0923C6.96053 11.5111 7.46924 11.7463 7.99967 11.7463C8.53011 11.7463 9.03882 11.5111 9.41389 11.0923C9.78896 10.6736 9.99967 10.1056 9.99967 9.51342C9.99967 8.92123 9.78896 8.35329 9.41389 7.93454C9.03882 7.51579 8.53011 7.28054 7.99967 7.28054ZM4.66634 9.51342C4.66634 8.52643 5.01753 7.57986 5.64265 6.88195C6.26777 6.18404 7.11562 5.79196 7.99967 5.79196C8.88373 5.79196 9.73158 6.18404 10.3567 6.88195C10.9818 7.57986 11.333 8.52643 11.333 9.51342C11.333 10.5004 10.9818 11.447 10.3567 12.1449C9.73158 12.8428 8.88373 13.2349 7.99967 13.2349C7.11562 13.2349 6.26777 12.8428 5.64265 12.1449C5.01753 11.447 4.66634 10.5004 4.66634 9.51342ZM11.6663 6.53625C11.9316 6.53625 12.1859 6.41863 12.3734 6.20925C12.561 5.99988 12.6663 5.71591 12.6663 5.41981C12.6663 5.12371 12.561 4.83974 12.3734 4.63037C12.1859 4.421 11.9316 4.30337 11.6663 4.30337C11.4011 4.30337 11.1468 4.421 10.9592 4.63037C10.7717 4.83974 10.6663 5.12371 10.6663 5.41981C10.6663 5.71591 10.7717 5.99988 10.9592 6.20925C11.1468 6.41863 11.4011 6.53625 11.6663 6.53625Z" fill="white"/>
</svg>
