<svg width="17" height="17" viewBox="0 0 17 17" fill="none" xmlns="http://www.w3.org/2000/svg">
<g clip-path="url(#clip0_223_302)">
<path d="M15.583 10.625H14.1663V8.50001C14.1663 8.31215 14.0917 8.13198 13.9589 7.99914C13.826 7.8663 13.6459 7.79168 13.458 7.79168H9.20801V6.37501H10.6247C10.8125 6.37501 10.9927 6.30038 11.1255 6.16754C11.2584 6.03471 11.333 5.85454 11.333 5.66668V1.41668C11.333 1.22882 11.2584 1.04865 11.1255 0.915809C10.9927 0.782971 10.8125 0.708344 10.6247 0.708344H6.37467C6.18681 0.708344 6.00665 0.782971 5.87381 0.915809C5.74097 1.04865 5.66634 1.22882 5.66634 1.41668V5.66668C5.66634 5.85454 5.74097 6.03471 5.87381 6.16754C6.00665 6.30038 6.18681 6.37501 6.37467 6.37501H7.79134V7.79168H3.54134C3.35348 7.79168 3.17331 7.8663 3.04047 7.99914C2.90764 8.13198 2.83301 8.31215 2.83301 8.50001V10.625H1.41634C1.22848 10.625 1.04831 10.6996 0.915474 10.8325C0.782636 10.9653 0.708008 11.1455 0.708008 11.3333V15.5833C0.708008 15.7712 0.782636 15.9514 0.915474 16.0842C1.04831 16.217 1.22848 16.2917 1.41634 16.2917H5.66634C5.8542 16.2917 6.03437 16.217 6.16721 16.0842C6.30005 15.9514 6.37467 15.7712 6.37467 15.5833V11.3333C6.37467 11.1455 6.30005 10.9653 6.16721 10.8325C6.03437 10.6996 5.8542 10.625 5.66634 10.625H4.24967V9.20834H12.7497V10.625H11.333C11.1451 10.625 10.965 10.6996 10.8321 10.8325C10.6993 10.9653 10.6247 11.1455 10.6247 11.3333V15.5833C10.6247 15.7712 10.6993 15.9514 10.8321 16.0842C10.965 16.217 11.1451 16.2917 11.333 16.2917H15.583C15.7709 16.2917 15.951 16.217 16.0839 16.0842C16.2167 15.9514 16.2913 15.7712 16.2913 15.5833V11.3333C16.2913 11.1455 16.2167 10.9653 16.0839 10.8325C15.951 10.6996 15.7709 10.625 15.583 10.625ZM4.95801 12.0417V14.875H2.12467V12.0417H4.95801ZM7.08301 4.95834V2.12501H9.91634V4.95834H7.08301ZM14.8747 14.875H12.0413V12.0417H14.8747V14.875Z" fill="white"/>
</g>
<defs>
<clipPath id="clip0_223_302">
<rect width="17" height="17" fill="white"/>
</clipPath>
</defs>
</svg>
