<svg width="17" height="17" viewBox="0 0 17 17" fill="none" xmlns="http://www.w3.org/2000/svg">
<path d="M8.49967 9.20834C8.28402 9.20582 8.07277 9.26942 7.89436 9.39059C7.71595 9.51176 7.57895 9.68468 7.50178 9.88608C7.42462 10.0875 7.41101 10.3077 7.46278 10.517C7.51455 10.7264 7.62921 10.9149 7.79134 11.0571V12.0417C7.79134 12.2295 7.86597 12.4097 7.99881 12.5425C8.13165 12.6754 8.31181 12.75 8.49967 12.75C8.68754 12.75 8.8677 12.6754 9.00054 12.5425C9.13338 12.4097 9.20801 12.2295 9.20801 12.0417V11.0571C9.37013 10.9149 9.4848 10.7264 9.53657 10.517C9.58834 10.3077 9.57473 10.0875 9.49756 9.88608C9.4204 9.68468 9.2834 9.51176 9.10499 9.39059C8.92658 9.26942 8.71533 9.20582 8.49967 9.20834ZM12.0413 6.375H6.37467V4.95834C6.37364 4.53772 6.49746 4.12626 6.73044 3.77606C6.96343 3.42586 7.2951 3.15269 7.68345 2.99113C8.0718 2.82957 8.49936 2.78689 8.91199 2.8685C9.32461 2.95012 9.70374 3.15235 10.0013 3.44959C10.2676 3.72164 10.4581 4.05863 10.5538 4.42709C10.5771 4.51732 10.6179 4.60208 10.6739 4.67654C10.7299 4.751 10.8001 4.8137 10.8803 4.86106C10.9605 4.90842 11.0493 4.93951 11.1416 4.95255C11.2339 4.9656 11.3278 4.96034 11.418 4.93709C11.5082 4.91383 11.593 4.87303 11.6675 4.81702C11.7419 4.76101 11.8046 4.69087 11.852 4.61063C11.8993 4.53038 11.9304 4.4416 11.9435 4.34934C11.9565 4.25708 11.9513 4.16315 11.928 4.07292C11.7666 3.46007 11.4466 2.90058 11.0001 2.45084C10.5044 1.95668 9.87337 1.62048 9.18673 1.4847C8.50008 1.34892 7.7886 1.41964 7.14213 1.68793C6.49565 1.95622 5.94316 2.41006 5.55443 2.99213C5.1657 3.5742 4.95816 4.2584 4.95801 4.95834V6.375C4.39442 6.375 3.85392 6.59889 3.45541 6.9974C3.05689 7.39592 2.83301 7.93642 2.83301 8.5V13.4583C2.83301 14.0219 3.05689 14.5624 3.45541 14.9609C3.85392 15.3595 4.39442 15.5833 4.95801 15.5833H12.0413C12.6049 15.5833 13.1454 15.3595 13.5439 14.9609C13.9425 14.5624 14.1663 14.0219 14.1663 13.4583V8.5C14.1663 7.93642 13.9425 7.39592 13.5439 6.9974C13.1454 6.59889 12.6049 6.375 12.0413 6.375ZM12.7497 13.4583C12.7497 13.6462 12.675 13.8264 12.5422 13.9592C12.4094 14.092 12.2292 14.1667 12.0413 14.1667H4.95801C4.77015 14.1667 4.58998 14.092 4.45714 13.9592C4.3243 13.8264 4.24967 13.6462 4.24967 13.4583V8.5C4.24967 8.31214 4.3243 8.13198 4.45714 7.99914C4.58998 7.8663 4.77015 7.79167 4.95801 7.79167H12.0413C12.2292 7.79167 12.4094 7.8663 12.5422 7.99914C12.675 8.13198 12.7497 8.31214 12.7497 8.5V13.4583Z" fill="white"/>
</svg>
