<svg width="14" height="17" viewBox="0 0 14 17" fill="none" xmlns="http://www.w3.org/2000/svg">
<path fill-rule="evenodd" clip-rule="evenodd" d="M14 8.51299C14 12.8289 10.866 16.3277 7 16.3277C3.13401 16.3277 0 12.8289 0 8.51299C0 4.19706 3.13401 0.698303 7 0.698303C10.866 0.698303 14 4.19706 14 8.51299ZM7.21853 6.34134C6.53935 6.66334 5.18195 7.3298 3.14631 8.34072C2.81576 8.49056 2.6426 8.63714 2.62684 8.78047C2.6002 9.02269 2.86632 9.11807 3.2287 9.24796C3.27799 9.26563 3.32907 9.28393 3.38143 9.30333C3.73796 9.43543 4.21756 9.58998 4.46688 9.59612C4.69304 9.60169 4.94546 9.49541 5.22414 9.27729C7.12609 7.81387 8.10789 7.07418 8.16953 7.05824C8.21301 7.04699 8.27327 7.03284 8.3141 7.07421C8.35493 7.11557 8.35092 7.19391 8.34659 7.21493C8.32023 7.34303 7.27562 8.45001 6.73503 9.02288C6.5665 9.20147 6.44696 9.32815 6.42252 9.35708C6.36778 9.42188 6.31199 9.48319 6.25837 9.54211C5.92714 9.90607 5.67876 10.179 6.27212 10.6247C6.55726 10.8389 6.78544 11.016 7.01307 11.1927C7.26167 11.3857 7.50963 11.5781 7.83045 11.8179C7.91219 11.8789 7.99025 11.9424 8.06628 12.0042C8.35559 12.2392 8.61552 12.4505 8.93663 12.4168C9.12322 12.3972 9.31596 12.1972 9.41384 11.6008C9.64517 10.1912 10.0999 7.13696 10.205 5.8784C10.2142 5.76813 10.2026 5.62701 10.1933 5.56506C10.184 5.50312 10.1645 5.41485 10.0939 5.34952C10.0102 5.27214 9.88108 5.25582 9.82332 5.25692C9.56068 5.26225 9.15773 5.42196 7.21853 6.34134Z" fill="white"/>
</svg>
