<svg width="15" height="18" viewBox="0 0 15 18" fill="none" xmlns="http://www.w3.org/2000/svg">
<path fill-rule="evenodd" clip-rule="evenodd" d="M7.5 0.581909C3.35786 0.581909 0 4.33057 0 8.95479C0 13.579 3.35786 17.3277 7.5 17.3277C11.6421 17.3277 15 13.579 15 8.95479C15 4.33057 11.6421 0.581909 7.5 0.581909ZM10.6255 6.07638C10.9697 6.18183 11.2408 6.49254 11.3328 6.88711C11.5 7.60223 11.5 9.09433 11.5 9.09433C11.5 9.09433 11.5 10.5864 11.3328 11.3016C11.2408 11.6961 10.9697 12.0068 10.6255 12.1123C10.0017 12.3039 7.5 12.3039 7.5 12.3039C7.5 12.3039 4.99832 12.3039 4.37445 12.1123C4.03023 12.0068 3.75914 11.6961 3.66714 11.3016C3.5 10.5864 3.5 9.09433 3.5 9.09433C3.5 9.09433 3.5 7.60223 3.66714 6.88711C3.75914 6.49254 4.03023 6.18183 4.37445 6.07638C4.99832 5.88473 7.5 5.88473 7.5 5.88473C7.5 5.88473 10.0017 5.88473 10.6255 6.07638Z" fill="white"/>
<path d="M6.75 10.6294V7.83841L8.75 9.23394L6.75 10.6294Z" fill="white"/>
</svg>
